HIERARCHY
ROOT Bip001_Pelvis
{
  OFFSET 34.4345 95.6767 -26.8758
  CHANNELS 6 Xposition Yposition Zposition Zrotation Xrotation Yrotation
  JOINT Bip001_Spine
  {
    OFFSET 1.4188e-005 10.2191 -0.0116013
    CHANNELS 3 Zrotation Xrotation Yrotation
    JOINT Bip001_L_Thigh
    {
      OFFSET 11.0458 -10.2192 0.0116197
      CHANNELS 3 Zrotation Xrotation Yrotation
      JOINT Bip001_L_Calf
      {
        OFFSET -0.707118 -44.0221 0.360014
        CHANNELS 3 Zrotation Xrotation Yrotation
        JOINT Bip001_L_Foot
        {
          OFFSET -0.651902 -40.5938 -3.56146
          CHANNELS 3 Zrotation Xrotation Yrotation
          JOINT Bip001_L_Toe0
          {
            OFFSET 0.0530839 -10.2181 13.1504
            CHANNELS 3 Zrotation Xrotation Yrotation
            End Site
            {
              OFFSET -1.02532e-005 0 7.55606
            }
          }
        }
      }
    }
    JOINT Bip001_R_Thigh
    {
      OFFSET -11.0458 -10.2191 0.0115893
      CHANNELS 3 Zrotation Xrotation Yrotation
      JOINT Bip001_R_Calf
      {
        OFFSET 0.706994 -44.0221 0.35984
        CHANNELS 3 Zrotation Xrotation Yrotation
        JOINT Bip001_R_Foot
        {
          OFFSET 0.651786 -40.5938 -3.5613
          CHANNELS 3 Zrotation Xrotation Yrotation
          JOINT Bip001_R_Toe0
          {
            OFFSET -0.0531479 -10.2181 13.1504
            CHANNELS 3 Zrotation Xrotation Yrotation
            End Site
            {
              OFFSET -1.02894e-005 0 7.55606
            }
          }
        }
      }
    }
    JOINT Bip001_Spine1
    {
      OFFSET 1.87041e-005 14.5736 1.08638
      CHANNELS 3 Zrotation Xrotation Yrotation
      JOINT Bip001_Spine2
      {
        OFFSET 2.24614e-005 14.5058 -1.69078
        CHANNELS 3 Zrotation Xrotation Yrotation
        JOINT Bip001_Neck
        {
          OFFSET 2.20278e-005 15.3945 -0.489414
          CHANNELS 3 Zrotation Xrotation Yrotation
          JOINT Bip001_L_Clavicle
          {
            OFFSET 6.06036 -0.000579998 0.00836775
            CHANNELS 3 Zrotation Xrotation Yrotation
            JOINT Bip001_L_UpperArm
            {
              OFFSET 11.5509 -0.0600302 0.00193952
              CHANNELS 3 Zrotation Xrotation Yrotation
              JOINT Bip001_L_Forearm
              {
                OFFSET 25.9523 0.0806089 -2.15551
                CHANNELS 3 Zrotation Xrotation Yrotation
                JOINT Bip001_L_Hand
                {
                  OFFSET 32.2475 0.153767 1.63968
                  CHANNELS 3 Zrotation Xrotation Yrotation
                  JOINT Bip001_L_Finger0
                  {
                    OFFSET 6.04639 -2.20976 5.90322
                    CHANNELS 3 Zrotation Xrotation Yrotation
                    End Site
                    {
                      OFFSET 4.22375 -1.43895 0.606485
                    }
                  }
                  JOINT Bip001_L_Finger1
                  {
                    OFFSET 11.0826 -0.704819 -0.198153
                    CHANNELS 3 Zrotation Xrotation Yrotation
                    End Site
                    {
                      OFFSET 6.20027 -0.397518 -0.0787166
                    }
                  }
                }
              }
            }
          }
          JOINT Bip001_R_Clavicle
          {
            OFFSET -6.06037 -0.000563197 0.00835105
            CHANNELS 3 Zrotation Xrotation Yrotation
            JOINT Bip001_R_UpperArm
            {
              OFFSET -11.5509 -0.0599978 0.00190698
              CHANNELS 3 Zrotation Xrotation Yrotation
              JOINT Bip001_R_Forearm
              {
                OFFSET -25.9523 0.0806822 -2.15589
                CHANNELS 3 Zrotation Xrotation Yrotation
                JOINT Bip001_R_Hand
                {
                  OFFSET -32.2475 0.153859 1.63989
                  CHANNELS 3 Zrotation Xrotation Yrotation
                  JOINT Bip001_R_Finger0
                  {
                    OFFSET -6.04641 -2.20976 5.90317
                    CHANNELS 3 Zrotation Xrotation Yrotation
                    End Site
                    {
                      OFFSET -4.22376 -1.43895 0.60647
                    }
                  }
                  JOINT Bip001_R_Finger1
                  {
                    OFFSET -11.0826 -0.704794 -0.198182
                    CHANNELS 3 Zrotation Xrotation Yrotation
                    End Site
                    {
                      OFFSET -6.20028 -0.397504 -0.0787333
                    }
                  }
                }
              }
            }
          }
          JOINT Bip001_Head
          {
            OFFSET 1.09673e-005 11.2744 2.05948
            CHANNELS 3 Zrotation Xrotation Yrotation
            End Site
            {
              OFFSET 2.89576e-005 20.8808 -2.77728e-005
            }
          }
        }
      }
    }
  }
}
MOTION
Frames:	13
Frame Time:	0.04
34.285 94.7973 -30.3775 -2.67624 1.3084 28.5052 -0.53321 1.23996 1.46969 6.14232 -16.9826 -1.03661 0.735413 21.4263 -18.8005 3.04385 -7.86186 0.0598309 0.875196 -3.41735 -0.983202 -0.294028 -0.856429 -3.58797 3.1656 10.8177 -2.96645 -12.5932 -3.44555 -23.6188 3.38416 -10.7986 3.18149 -1.09812 2.46588 2.95197 -1.09832 2.46684 2.95198 5.43055 -13.113 -8.69808 -30.4327 10.5908 5.94149 -53.6306 35.6084 7.26483 16.5672 -2.97232 -30.7056 8.78966 1.07998 -3.74178 9.54166e-015 -1.59028e-015 -0 4.77083e-015 -1.59028e-015 -3.18055e-015 4.04504 18.6008 28.4337 61.9681 -53.6971 55.1567 -61.4438 -3.06272 83.3637 -10.8071 -4.28318 -0.213817 -0 0 1.59028e-015 0 0 -0 -6.2539 4.77695 -5.57142 
34.2719 94.9117 -30.3247 -3.109 1.79731 30.6004 -0.56042 1.30593 1.80356 5.97423 -17.8651 -2.48546 0.421037 20.7756 -19.4829 2.60602 -7.53271 0.0544398 0.834653 -3.14695 -1.00649 0.147613 -0.759405 -3.4676 3.21864 9.56505 -3.21856 -12.6998 -2.27633 -25.2759 3.45302 -10.9058 3.11287 -1.16694 2.59355 3.62083 -1.16221 2.59322 3.62117 5.3175 -14.3712 -9.83796 -31.205 11.2449 6.9581 -52.641 33.5417 7.66046 16.2697 -2.65809 -31.6836 8.52942 1.32875 -3.89432 -1.59028e-015 -1.59028e-015 -0 1.19271e-015 -1.59028e-015 -0 -0.0577463 18.8283 32.2028 35.477 -37.4717 42.1695 -66.5698 5.76925 59.7111 -13.0401 -7.86041 -1.3514 -6.36111e-015 -6.36111e-015 4.77083e-015 -6.36111e-015 -3.18056e-015 4.77083e-015 -6.02494 5.53694 -6.71195 
34.25 94.9821 -30.3129 -3.23332 2.3587 32.2704 -0.63088 1.39633 2.13206 5.44277 -18.495 -3.18772 0.516961 19.9378 -20.6727 2.57856 -6.86632 0.0392846 1.02269 -3.19996 -1.24976 0.202172 -0.951404 -3.97356 3.21982 9.00315 -3.19943 -12.8031 -1.70236 -26.3965 3.54485 -11.0431 3.00697 -1.31428 2.76783 4.28354 -1.31419 2.76786 4.28249 5.53263 -14.5496 -11.4734 -32.0339 10.5466 8.12509 -51.5153 32.7914 7.82893 16.2116 -1.43759 -31.851 8.82393 0.91239 -4.41606 3.37934e-015 2.38542e-015 3.18055e-015 7.95139e-016 2.38542e-015 -0 -2.6568 18.2426 34.7005 44.0659 -40.492 54.7633 -67.0249 5.82085 53.1857 -4.71303 -5.87844 2.89746 6.36111e-015 0 -3.18055e-015 9.54166e-015 6.36111e-015 -4.77083e-015 -6.46258 5.26203 -8.1348 
34.2637 95.0032 -30.296 -3.1974 2.45762 33.6874 -0.727845 1.29639 1.89116 5.22574 -18.4021 -3.60098 0.459151 19.2833 -21.4243 3.1932 -6.11376 0.027006 1.34108 -3.69226 -1.5185 0.279318 -0.699986 -4.47681 3.24406 8.92936 -3.26739 -12.7939 -1.53278 -26.8018 3.57131 -11.0488 2.93628 -1.49777 2.56791 3.80041 -1.49377 2.5679 3.80015 8.69484 -12.1436 -12.2511 -32.0082 7.32127 8.78942 -54.5043 33.745 9.69504 16.6567 -0.472272 -31.2255 9.86798 0.678943 -4.95881 -1.19271e-015 0 -3.18055e-015 1.19271e-015 7.95139e-016 -3.18055e-015 -1.92147 16.1501 31.2608 37.5492 -38.39 54.6838 -56.496 1.1496 54.1625 -1.17349 -0.158434 1.43756 3.18055e-015 -3.18055e-015 -0 3.18055e-015 3.18056e-015 -0 -8.23574 4.03534 -7.85808 
34.5581 95.0425 -30.29 -2.52135 1.99982 33.1476 -0.667175 1.17437 1.44776 5.10578 -17.1144 0.110707 1.16174 18.9926 -23.8819 3.21367 -6.21413 0.0263912 1.55768 -3.58054 -1.80799 -0.378861 0.0142618 -4.34859 3.32886 9.39101 -3.22155 -12.5788 -1.79096 -26.2028 3.57629 -11.0767 2.96175 -1.37214 2.33143 2.90955 -1.36475 2.33155 2.91013 10.7784 -7.96746 -12.6407 -31.464 3.22753 7.44702 -58.8173 34.1611 14.104 17.1867 1.00211 -30.7591 10.281 0.607354 -5.27575 4.37326e-015 -3.18055e-015 3.18055e-015 4.37326e-015 -4.77083e-015 3.18055e-015 -6.17891 9.56764 28.8636 29.6668 -29.2083 50.7223 -50.0791 -0.517592 51.5637 -14.8294 -0.152706 3.57408 -4.77083e-015 -6.36111e-015 -0 -6.36111e-015 -6.36111e-015 -0 -9.5089 2.73475 -7.23937 
34.7037 95.2476 -30.3169 -1.55987 1.56962 29.6581 -0.557671 1.30982 1.18238 5.12604 -14.9732 1.62214 0.845216 17.7152 -21.0452 2.2143 -6.4235 0.0262276 1.6548 -2.94258 -2.00264 -1.30992 0.125623 -3.24689 2.9232 9.72506 -3.13576 -12.119 -2.14455 -24.2286 3.50833 -10.9767 3.03446 -1.14886 2.60774 2.37621 -1.15348 2.60745 2.37726 8.65508 -6.96015 -10.9837 -30.8563 3.25129 6.33234 -59.5213 36.3853 16.4184 17.6533 1.81398 -29.3122 8.57484 0.570896 -5.22541 -2.38542e-015 -3.18055e-015 -3.18055e-015 -2.38542e-015 -3.18056e-015 -3.18055e-015 -6.71685 8.31062 29.1118 26.3227 -22.7007 50.8878 -48.9461 -4.02989 48.4573 -17.5825 1.19956 3.25234 -3.18055e-015 6.36111e-015 -3.18055e-015 0 6.36111e-015 -0 -8.10287 3.35167 -6.52349 
34.6022 95.4369 -30.4146 -1.17218 1.04657 25.2816 -0.544379 1.71369 1.16686 6.11091 -13.3809 2.24652 -0.358222 16.6959 -16.7528 0.75912 -7.06918 0.0260215 1.20809 -1.97261 -1.76411 -1.63101 -0.300444 -2.29424 2.44399 9.58398 -2.73917 -11.6012 -2.48493 -21.7106 3.40914 -10.7839 3.07378 -1.12697 3.41583 2.35205 -1.12557 3.41585 2.352 6.20552 -7.7522 -9.42112 -29.127 4.87469 6.42317 -58.8468 40.8944 14.9495 17.8405 1.96211 -26.2 4.94787 0.2345 -5.17399 6.36111e-015 -3.18055e-015 -3.18055e-015 3.97569e-015 -6.36111e-015 -1.59028e-015 -4.37737 10.1564 31.9079 29.1741 -22.322 51.8725 -47.5668 -6.80784 51.3086 -14.7933 1.63569 3.82962 -1.59028e-015 3.18055e-015 3.18055e-015 1.59028e-015 0 3.18055e-015 -5.17338 4.01288 -6.32979 
34.6547 95.534 -30.5071 -0.381386 0.349902 22.1638 -0.437652 1.87561 1.31232 5.46667 -11.1641 2.95792 0.00322031 15.021 -14.9111 1.54292 -6.2085 0.0251567 1.72153 -2.77993 -2.15411 -2.58754 -0.0182719 -3.65592 2.07261 9.75837 -2.25857 -11.0436 -3.51668 -18.515 3.30858 -10.5876 3.11389 -0.919095 3.74046 2.64277 -0.918924 3.74048 2.64175 5.14373 -6.9689 -9.76104 -29.1266 4.294 5.6784 -60.0314 44.642 15.5373 18.623 0.777135 -23.8567 2.68461 0.611452 -4.59775 -3.97569e-015 3.18055e-015 -3.18055e-015 -3.18055e-015 3.18056e-015 -3.18055e-015 -0.934731 10.6053 32.2192 37.8478 -23.7428 52.2921 -46.7905 -3.84029 62.8342 -10.4335 0.476099 4.26485 3.18055e-015 -9.54166e-015 3.18055e-015 6.36111e-015 -6.36111e-015 -0 -4.18341 2.87749 -7.13963 
34.5494 95.5368 -30.7565 -0.171192 0.224505 20.5062 -0.375184 1.8971 1.33946 5.05265 -10.3626 2.80036 0.234227 14.0323 -13.9175 2.91922 -5.03947 -0.00428763 1.99015 -3.93773 -2.11144 -3.14214 -0.291025 -5.07722 1.99656 9.94449 -2.18631 -10.5375 -4.52131 -16.1462 3.19167 -10.3554 3.1548 -0.796904 3.78495 2.69455 -0.796015 3.785 2.69413 6.56344 -6.97126 -10.9003 -30.7183 3.77273 5.43584 -59.4896 43.2721 14.1676 18.5085 1.87581 -23.2712 4.05577 1.26848 -3.86848 -7.95139e-016 -6.36111e-015 -1.59028e-015 3.97569e-015 -9.54167e-015 -1.59028e-015 1.64436 11.7964 31.2199 45.9039 -25.9232 48.8494 -50.1045 -0.595158 78.3336 -5.02745 -2.30485 4.74375 1.59028e-014 -3.18055e-015 6.36111e-015 1.11319e-014 -6.36111e-015 3.18055e-015 -5.78648 1.9625 -7.55521 
34.2677 95.5958 -31.0291 -0.156708 0.28178 18.6586 -0.344685 1.91006 1.11304 5.38328 -9.94949 3.35145 -0.0974976 13.3934 -12.3394 2.64448 -4.77352 -0.000623503 2.05472 -3.98341 -2.18559 -3.32375 -0.875405 -4.38818 2.09526 9.92944 -1.89142 -10.3714 -4.79038 -15.3397 3.07707 -10.0526 3.08679 -0.730141 3.81323 2.23975 -0.73126 3.81282 2.23982 7.11087 -7.61647 -10.8595 -30.8697 4.22086 5.90127 -59.1351 40.0228 12.5524 17.9103 1.77925 -23.971 7.25589 1.44135 -3.50276 2.38542e-015 -3.18055e-015 -1.59028e-015 3.18055e-015 3.18056e-015 -1.59028e-015 4.74534 13.7433 30.0765 46.6028 -27.5478 38.8845 -49.1071 -0.668202 90.6838 -4.48129 -3.27612 3.00587 -4.77083e-015 6.36111e-015 -3.18055e-015 -3.18055e-015 9.54167e-015 -3.18055e-015 -6.64162 2.04914 -7.13641 
33.9826 95.6882 -31.2191 0.0382114 -0.014709 16.6322 -0.346233 1.98028 0.62934 5.95801 -8.90283 5.16371 -0.573557 12.4873 -11.478 1.7481 -4.88228 0.00500023 1.77588 -3.51826 -1.92862 -3.29306 -1.12158 -3.39973 1.76414 9.8576 -1.74459 -9.99855 -4.9869 -14.2119 2.96217 -9.76034 3.03835 -0.708022 3.95635 1.27115 -0.706464 3.95706 1.271 6.30691 -7.54086 -9.48134 -29.907 4.45947 6.69946 -58.7016 37.6892 11.5176 16.0704 -1.93548 -25.0366 10.4542 1.38952 -3.35541 -1.59028e-015 3.18055e-015 -3.18055e-015 -1.59028e-015 0 -0 10.0948 15.6757 29.7395 38.993 -22.653 22.6751 -47.1366 -2.8129 95.9101 -7.96258 -2.09235 1.93297 6.36111e-015 -3.18055e-015 9.54166e-015 -0 0 6.36111e-015 -5.77959 2.06574 -6.26415 
33.8385 95.7856 -31.3615 0.391742 -0.371926 14.3553 -0.396192 2.067 0.354109 5.94477 -7.36615 7.91783 -0.327781 10.9266 -11.9965 1.07743 -4.5584 0.00818412 1.3818 -3.43215 -1.49643 -3.59164 -1.23823 -3.0903 1.58012 9.78473 -1.47474 -9.53457 -5.38219 -12.5803 2.84716 -9.48285 3.01335 -0.805968 4.13143 0.723205 -0.80597 4.13145 0.723206 5.60265 -7.32272 -8.49338 -28.9523 4.5997 6.78336 -58.098 37.1229 10.617 14.1037 -6.60708 -26.0226 10.704 0.837255 -2.92547 -1.59028e-015 0 -6.36111e-015 -3.18055e-015 0 -6.36111e-015 14.3335 16.6223 28.3769 37.2445 -16.7645 8.86044 -49.3072 -2.32717 97.14 -9.8524 -2.23017 3.75666 7.95139e-016 -2.38542e-015 6.36111e-015 7.95139e-016 -7.95139e-016 6.36111e-015 -4.95296 2.04247 -5.66205 
33.743 95.8341 -31.5194 0.957465 -0.450667 12.1702 -0.465724 2.10701 0.257339 5.24511 -5.83897 7.87923 -0.18727 8.71893 -10.4411 1.52484 -3.24664 -0.0162784 1.34031 -4.17964 -1.11369 -4.29628 -1.72577 -3.66236 1.45862 10.1938 -1.26317 -8.96168 -6.25086 -10.4446 2.76919 -9.34004 3.06721 -0.942002 4.21183 0.533476 -0.941872 4.21182 0.532358 5.42879 -6.6638 -7.70567 -28.5587 4.47422 5.66551 -57.1193 37.2119 9.75682 12.8628 -9.36559 -27.1905 9.773 0.768795 -2.25217 7.95139e-016 3.18055e-015 -0 -5.56597e-015 6.36111e-015 3.18055e-015 17.571 16.162 25.6983 38.3185 -9.52378 -1.93142 -48.5338 0.635401 94.2333 -9.51559 -3.46186 3.42767 7.95139e-016 3.97569e-016 -3.18055e-015 -7.95139e-016 1.19271e-015 -6.36111e-015 -4.83776 1.07399 -5.01006 
